<?xml version="1.0" encoding="UTF-8" standalone="no"?>
<svg
   id="Layer_1"
   data-name="Layer 1"
   viewBox="0 0 947 759"
   version="1.1"
   sodipodi:docname="wavy_right_flower.svg"
   inkscape:version="1.2 (dc2aedaf03, 2022-05-15)"
   xmlns:inkscape="http://www.inkscape.org/namespaces/inkscape"
   xmlns:sodipodi="http://sodipodi.sourceforge.net/DTD/sodipodi-0.dtd"
   xmlns="http://www.w3.org/2000/svg"
   xmlns:svg="http://www.w3.org/2000/svg"
   xmlns:rdf="http://www.w3.org/1999/02/22-rdf-syntax-ns#"
   xmlns:cc="http://creativecommons.org/ns#"
   xmlns:dc="http://purl.org/dc/elements/1.1/">
  <sodipodi:namedview
     id="namedview22"
     pagecolor="#ffffff"
     bordercolor="#000000"
     borderopacity="0.25"
     inkscape:showpageshadow="2"
     inkscape:pageopacity="0.0"
     inkscape:pagecheckerboard="0"
     inkscape:deskcolor="#d1d1d1"
     showgrid="false"
     inkscape:zoom="0.31093544"
     inkscape:cx="472.76695"
     inkscape:cy="379.5"
     inkscape:window-width="1440"
     inkscape:window-height="837"
     inkscape:window-x="-8"
     inkscape:window-y="-8"
     inkscape:window-maximized="1"
     inkscape:current-layer="Layer_1" />
  <defs
     id="defs15">
    <style
       id="style13">.cls-1{fill:#0f0f0f;}</style>
  </defs>
  <title
     id="title17">SVG</title>
  <path
     id="_Path_"
     data-name="&lt;Path&gt;"
     class="cls-1"
     d="m 534.97551,72.13 c -15.17,42.14 20.86,112.55 90.66,121 69.8,8.45 97.08,-31.92 110.31,-71.63 14.8,-44.41 -9.63,-99.89 -66.19,-34.9 0,0 28,-73.61 -6,-82 -18.84,-4.65 -51.75,-1 -60.17,71.17 -0.01,-0.03 -36.11,-93.9 -68.61,-3.64 z" />
  <path
     id="_Path_2"
     data-name="&lt;Path&gt;"
     class="cls-1"
     d="m 948.11551,45.51 c -51.6,-23.08 -133.45,-26.51 -175.54,88.76 -61,167 -194.22,95.95 -278.86,31.76 -109.14,-82.77 -227.14,-28.77 -275,108.22 -46.63,133.49 -98.27,59.51 -169.610002,99.24 -84.79,47.22 -66.43,218.58 84.270002,243.71 168.24,28.06 259.84,-20.71 409.9,74.27 172.9,109.43 332.37,59.53 404.84,25.36 z" />
  <metadata
     id="metadata128">
    <rdf:RDF>
      <cc:Work
         rdf:about="">
        <dc:title>SVG</dc:title>
      </cc:Work>
    </rdf:RDF>
  </metadata>
</svg>
