<?xml version="1.0" standalone="no"?>
<!DOCTYPE svg PUBLIC "-//W3C//DTD SVG 20010904//EN"
 "http://www.w3.org/TR/2001/REC-SVG-20010904/DTD/svg10.dtd">
<svg version="1.0" xmlns="http://www.w3.org/2000/svg"
 width="384.000000pt" height="384.000000pt" viewBox="0 0 384.000000 384.000000"
 preserveAspectRatio="xMidYMid meet">
<metadata>
Created by potrace 1.14, written by Peter Selinger 2001-2017
</metadata>
<g transform="translate(0.000000,384.000000) scale(0.100000,-0.100000)"
fill="#000000" stroke="none">
<path d="M1823 2570 c-98 -8 -136 -48 -168 -178 -18 -75 -23 -110 -30 -212
-16 -237 -10 -224 -105 -214 -84 8 -129 -6 -175 -54 -77 -78 -81 -242 -8 -340
62 -83 152 -83 253 -1 19 16 40 29 46 29 7 0 36 -20 65 -45 29 -25 60 -46 68
-46 44 -4 68 3 89 26 24 28 24 31 2 160 -13 75 -16 267 -6 350 12 102 18 141
27 195 17 98 17 97 41 95 39 -3 108 22 133 49 31 34 41 86 23 123 -25 54 -110
75 -255 63z m-294 -730 c32 -16 56 -100 39 -132 -9 -19 -72 -25 -94 -10 -43
29 -35 113 14 141 21 13 20 13 41 1z"/>
<path d="M2406 2569 c-65 -18 -113 -100 -131 -225 -4 -21 -8 -46 -10 -54 -2
-8 -7 -58 -10 -110 -4 -52 -8 -117 -10 -145 -4 -67 -29 -88 -82 -70 -110 37
-216 -33 -242 -160 -21 -98 13 -212 77 -265 31 -25 42 -28 89 -26 46 3 66 11
121 49 l67 46 40 -38 c55 -53 92 -70 131 -60 58 16 85 69 59 118 -17 33 -31
136 -29 211 1 58 13 237 19 280 11 96 24 180 31 214 12 53 4 159 -13 189 -22
38 -67 57 -107 46z m-218 -732 c19 -15 42 -75 42 -108 0 -63 -121 -70 -167
-10 -17 22 -16 48 3 80 32 54 83 69 122 38z"/>
<path d="M2684 2522 c-19 -13 -40 -35 -46 -50 -8 -18 -12 -152 -14 -397 -1
-203 -3 -389 -4 -412 -7 -144 172 -215 235 -93 24 47 27 87 29 443 2 426 -8
484 -88 518 -45 19 -75 17 -112 -9z"/>
<path d="M342 2531 c-12 -3 -35 -18 -51 -34 -60 -56 -72 -147 -65 -507 6 -341
7 -359 31 -407 24 -49 61 -74 109 -75 57 -1 100 25 125 75 12 23 21 43 20 45
0 1 -1 22 -1 46 0 67 21 67 93 -3 64 -61 167 -129 226 -149 58 -20 98 -15 117
14 45 68 -1 145 -126 212 -39 21 -130 93 -146 116 -42 61 3 136 201 331 78 77
147 150 153 162 53 98 -72 209 -179 160 -34 -16 -89 -63 -89 -76 0 -6 -4 -11
-8 -11 -9 0 -39 -51 -80 -135 -13 -27 -49 -92 -80 -144 -79 -135 -85 -120 -69
159 3 49 -14 120 -38 157 -29 44 -99 75 -143 64z"/>
<path d="M1078 2224 c-38 -20 -58 -86 -37 -123 18 -33 71 -60 104 -54 31 7 71
46 77 77 6 28 -12 75 -34 94 -24 19 -80 23 -110 6z"/>
<path d="M3250 2072 c-48 -6 -155 -44 -185 -65 -103 -73 -140 -178 -105 -302
19 -69 95 -145 173 -174 70 -25 161 -27 238 -5 60 17 155 77 164 102 3 10 23
30 45 46 45 33 51 60 22 97 -14 16 -24 20 -38 14 -10 -4 -27 -7 -36 -6 -26 3
-22 -23 7 -57 30 -36 20 -47 -26 -28 -36 14 -67 13 -139 -8 -38 -11 -70 -12
-126 -7 -6 1 -23 10 -37 21 -23 18 -25 24 -15 50 5 17 17 30 26 31 10 0 44 2
78 4 81 3 128 20 158 55 81 97 4 226 -139 234 -22 1 -51 0 -65 -2z m341 -334
c8 -16 8 -19 -2 -16 -6 2 -16 14 -20 27 -11 27 6 19 22 -11z"/>
<path d="M1084 1981 c-52 -32 -71 -100 -78 -278 -3 -76 -1 -99 16 -132 34 -70
120 -86 173 -33 35 35 41 67 40 216 -1 118 -3 135 -25 173 -13 24 -37 49 -56
58 -39 18 -33 19 -70 -4z"/>
<path d="M1730 1350 c0 -5 7 -10 16 -10 8 0 12 5 9 10 -3 6 -10 10 -16 10 -5
0 -9 -4 -9 -10z"/>
<path d="M2157 1343 c-8 -30 -3 -123 8 -126 11 -2 15 132 4 139 -4 2 -10 -4
-12 -13z"/>
<path d="M2769 1332 c-6 -39 6 -130 14 -112 3 8 7 29 9 45 2 22 9 31 26 33 15
2 23 -2 24 -15 1 -10 2 -25 4 -33 1 -8 2 -21 3 -28 2 -31 21 2 21 37 0 46 -20
66 -55 57 -20 -5 -25 -3 -25 13 0 31 -17 34 -21 3z"/>
<path d="M3139 1348 c-1 -18 -1 -110 0 -126 1 -7 6 -10 11 -7 6 3 10 35 10 70
0 35 -4 67 -10 70 -5 3 -10 0 -11 -7z"/>
<path d="M699 1323 c-5 -16 -12 -35 -15 -43 -17 -44 -22 -70 -13 -70 5 0 13 8
17 18 10 23 53 22 75 -3 12 -13 17 -15 14 -5 -42 139 -57 159 -78 103z m40
-48 c1 -6 -8 -11 -19 -12 -23 -2 -23 -3 -9 34 10 26 12 27 19 8 5 -11 9 -25 9
-30z"/>
<path d="M969 1338 c-4 -88 -2 -128 6 -125 14 5 19 137 5 137 -5 0 -10 -6 -11
-12z"/>
<path d="M1146 1342 c-4 -7 -4 -12 1 -12 4 0 2 -4 -6 -9 -11 -7 -12 -13 -4
-23 5 -7 9 -26 8 -41 -2 -28 28 -57 39 -38 4 5 2 11 -3 13 -5 1 -11 17 -14 35
-4 26 -1 32 17 38 16 5 18 8 6 12 -8 4 -20 13 -26 21 -8 11 -13 12 -18 4z"/>
<path d="M1666 1334 c-17 -17 -21 -34 -8 -34 5 0 8 -16 7 -35 -2 -26 3 -39 17
-46 21 -11 40 -3 21 9 -20 13 -23 61 -5 72 16 9 16 11 -1 21 -9 5 -15 14 -12
20 9 14 -2 11 -19 -7z"/>
<path d="M2248 1343 c-3 -7 -2 -80 1 -121 2 -24 21 -1 21 25 0 15 3 24 6 20 3
-3 19 -1 36 5 25 9 29 14 23 37 -4 14 -12 29 -18 33 -16 10 -65 10 -69 1z m65
-27 c7 -17 -18 -40 -33 -31 -5 3 -10 15 -10 26 0 23 35 27 43 5z"/>
<path d="M799 1291 c0 -14 -2 -38 -3 -54 -3 -42 18 -26 24 19 4 31 10 40 28
42 15 2 22 -2 23 -15 1 -10 3 -25 4 -33 1 -8 3 -21 4 -28 2 -24 17 -4 19 28 4
51 -13 70 -58 68 -36 -1 -40 -4 -41 -27z"/>
<path d="M1014 1264 c0 -39 3 -51 13 -47 7 3 11 15 9 28 -6 30 16 60 38 52 9
-4 17 -18 17 -32 1 -14 3 -29 4 -35 1 -5 3 -13 4 -17 4 -23 18 24 15 50 -6 52
-10 56 -56 54 l-43 -2 -1 -51z"/>
<path d="M1219 1296 c-16 -34 -4 -72 23 -79 24 -7 82 23 60 31 -7 2 -19 -2
-27 -8 -16 -13 -45 -7 -45 10 0 5 18 10 40 10 44 0 52 16 24 44 -24 24 -63 20
-75 -8z m68 -12 c2 -6 -9 -11 -27 -12 -29 -1 -37 7 -23 22 10 10 46 3 50 -10z"/>
<path d="M1330 1263 c0 -29 5 -53 10 -53 6 0 10 18 10 40 0 37 7 45 33 41 4 0
7 5 7 12 0 8 -12 14 -30 14 -30 0 -30 -1 -30 -54z"/>
<path d="M1406 1310 c-1 -4 0 -44 3 -89 2 -27 19 3 23 39 2 27 8 36 26 38 15
2 22 -2 23 -15 1 -10 3 -25 4 -33 1 -8 3 -21 4 -27 0 -7 5 -13 10 -13 15 0 7
90 -9 100 -15 10 -80 9 -84 0z"/>
<path d="M1536 1299 c-8 -11 -13 -28 -11 -37 2 -9 4 -20 4 -25 2 -15 53 -28
66 -17 10 8 15 8 21 -1 11 -19 20 14 16 59 -4 36 -5 38 -43 39 -29 2 -42 -3
-53 -18z m71 -15 c7 -18 -6 -45 -24 -51 -6 -2 -18 3 -27 12 -12 12 -13 21 -6
36 13 23 48 25 57 3z"/>
<path d="M1730 1271 c0 -28 5 -53 10 -56 6 -4 10 15 10 49 0 31 -4 56 -10 56
-5 0 -10 -22 -10 -49z"/>
<path d="M1786 1301 c-20 -22 -13 -67 13 -80 26 -14 69 -2 75 22 9 34 7 44
-10 61 -21 22 -57 20 -78 -3z m67 -23 c11 -40 -32 -66 -52 -31 -12 23 4 53 28
53 11 0 21 -9 24 -22z"/>
<path d="M1903 1304 c-2 -7 -3 -29 -1 -50 3 -44 22 -49 24 -6 2 50 4 53 27 50
18 -2 23 -10 25 -46 2 -23 7 -40 13 -37 14 9 11 81 -4 94 -17 13 -78 10 -84
-5z"/>
<path d="M2030 1300 c-27 -51 7 -98 58 -79 14 5 22 5 22 -2 0 -6 5 -7 10 -4 6
4 10 27 9 53 l-2 47 -44 2 c-33 1 -45 -3 -53 -17z m69 -19 c7 -13 7 -23 -2
-35 -22 -30 -65 3 -51 39 8 21 41 19 53 -4z"/>
<path d="M2356 1271 c1 -45 16 -69 22 -34 8 50 14 63 29 63 27 0 4 15 -25 16
-26 1 -27 -1 -26 -45z"/>
<path d="M2448 1309 c-20 -11 -25 -73 -8 -84 26 -16 58 -14 75 5 20 22 6 27
-25 8 -15 -10 -22 -10 -32 0 -16 16 -9 21 35 24 28 1 37 6 37 20 0 31 -48 47
-82 27z m55 -24 c-2 -5 -14 -11 -28 -12 -25 -2 -32 7 -18 21 10 10 48 3 46 -9z"/>
<path d="M2557 1313 c-17 -16 -5 -42 23 -52 34 -11 40 -31 10 -31 -11 0 -20 5
-20 10 0 6 -4 10 -10 10 -19 0 -10 -21 15 -32 19 -8 28 -8 40 2 24 20 18 40
-15 51 -16 6 -30 15 -30 19 0 14 18 21 25 10 3 -5 13 -10 22 -10 13 0 13 3 3
15 -13 15 -51 20 -63 8z"/>
<path d="M2657 1300 c-20 -28 -10 -65 20 -79 21 -10 30 -9 52 5 16 11 21 19
13 22 -7 2 -19 -1 -26 -7 -22 -18 -47 -2 -44 28 3 28 35 42 48 21 4 -7 13 -11
20 -8 20 6 -17 38 -45 38 -13 0 -30 -9 -38 -20z"/>
<path d="M2901 1301 c-19 -35 -13 -67 14 -79 52 -24 96 20 71 70 -16 31 -70
38 -85 9z m67 -32 c4 -30 -22 -46 -44 -28 -15 12 -19 41 -7 53 16 16 48 1 51
-25z"/>
<path d="M3030 1310 c-8 -5 -16 -22 -18 -39 -4 -40 32 -66 72 -52 14 6 27 16
28 23 0 7 2 20 3 28 4 38 -49 63 -85 40z m58 -41 c2 -18 -3 -29 -14 -33 -25
-9 -48 16 -39 43 10 32 49 24 53 -10z"/>
</g>
</svg>
